<svg xmlns="http://www.w3.org/2000/svg" width="72" height="72" viewBox="0 0 72 72" id="instagram">
  <g id="providers-list" fill="none" fill-rule="evenodd" stroke="none" stroke-width="1">
    <g id="instagram">
      <rect id="Rectangle-9" width="72" height="72" x="0" y="0" fill="#265D89" rx="4"></rect>
      <path id="Shape" fill="#FFF" d="M20.39 15h31.22c2.964 0 5.39 2.483 5.39 5.52v31.96c0 3.037-2.426 5.52-5.39 5.52H20.39C17.427 58 15 55.517 15 52.48V20.52C15 17.483 17.426 15 20.39 15zm25.205 4.777c-1.04 0-1.89.871-1.89 1.936v4.634c0 1.065.85 1.936 1.89 1.936h4.747c1.04 0 1.89-.871 1.89-1.936v-4.634c0-1.065-.85-1.936-1.89-1.936h-4.747zm6.658 13.407h-3.697c.35 1.17.54 2.407.54 3.69 0 7.152-5.846 12.95-13.056 12.95-7.21 0-13.054-5.798-13.054-12.95 0-1.283.189-2.52.538-3.69h-3.857v18.164c0 .94.751 1.71 1.67 1.71h29.247c.918 0 1.67-.77 1.67-1.71V33.184zM36.04 28.039c-4.659 0-8.435 3.746-8.435 8.367 0 4.622 3.776 8.368 8.435 8.368 4.658 0 8.435-3.746 8.435-8.368 0-4.62-3.777-8.367-8.435-8.367z"></path>
    </g>
  </g>
</svg>
